:SAMPLES-PER-SECOND 30
:FULLY-SPECIFIED
:DEGREES
1
root  13.086 39.997 4.6666 -37.1478 -87.2426 35.0211
RightUpLeg  4.04428 -8.26492 -3.65048
RightLeg  4.70898 -0.511456 0.147447
RightFoot  -6.05988 -0.0490424 0.0986393
RightToes  -1.33073e-015 0 -3.6325e-017
Spine  5.79796 -1.21303 -2.80239
Spine1  -0.163255 -1.71131 2.96259
HEad  -3.2225 0.0201215 -4.00952
LeftShoulder1  0.282606 1.00872 -3.50138
LeftArm  -23.2017 4.07782 -16.7167
LeftForeArm  0.345071 -0.0706329 3.5157
LeftHand  -0.0390023 4.7279 3.9302
RightShoulder  -0.0566071 -4.04028 2.20786
RightArm  -9.98811 4.94086 7.407
RightForeArm  -2.1214 -0.993382 -2.38618
RightHand  -0.0792034 5.32757 -1.16924
LeftUpLeg  2.57693 5.5605 3.48821
LeftLeg  1.90617 -14.8148 1.53302
LeftFoot  -3.11865 0.152221 -1.92868
LeftToes  -1.93726e-010 2.42366e-011 2.16268e-013
2
root  13.0356 39.998 4.66738 -38.4523 -87.3745 36.3484
RightUpLeg  4.057 -8.21267 -3.60442
RightLeg  4.75492 -0.418406 0.123082
RightFoot  -6.10617 -0.0465074 0.059281
RightToes  -1.33073e-015 0 -3.6325e-017
Spine  5.73491 -1.2065 -2.95889
Spine1  -0.0466051 -1.75675 3.20009
HEad  -3.26947 0.432306 -3.72733
LeftShoulder1  0.282606 1.04971 -3.5918
LeftArm  -23.1451 4.10762 -16.5867
LeftForeArm  0.191494 -0.164075 3.46601
LeftHand  -0.0385189 4.70679 3.94658
RightShoulder  -0.0628942 -4.09835 2.25283
RightArm  -10.0633 4.91732 7.44253
RightForeArm  -2.06505 -0.998413 -2.42249
RightHand  -0.0926605 5.40144 -1.30934
LeftUpLeg  2.65089 5.60042 3.52817
LeftLeg  1.92661 -14.6925 1.53171
LeftFoot  -3.16245 0.143114 -1.78707
LeftToes  -1.93726e-010 2.42366e-011 2.16268e-013
3
root  12.9676 40.0025 4.67705 -40.1406 -87.5394 38.0717
RightUpLeg  3.98984 -8.1588 -3.5476
RightLeg  5.011 -0.234064 0.0680321
RightFoot  -6.12526 -0.0494726 0.105318
RightToes  -1.33073e-015 0 -3.6325e-017
Spine  5.56342 -1.20334 -3.16927
Spine1  0.102541 -1.83508 3.66896
HEad  -2.92784 0.748459 -3.815
LeftShoulder1  0.283396 1.10232 -3.78011
LeftArm  -23.153 4.05375 -16.4976
LeftForeArm  0.723808 -0.247653 3.44822
LeftHand  -0.0417884 4.76161 3.75859
RightShoulder  -0.0539236 -4.01691 2.15733
RightArm  -10.138 4.74205 7.50123
RightForeArm  -1.61978 -0.740176 -2.4666
RightHand  -0.0530653 5.22446 -0.891631
LeftUpLeg  2.7546 5.63666 3.57782
LeftLeg  1.94183 -14.4875 1.50642
LeftFoot  -3.12081 0.128732 -1.56349
LeftToes  -1.93726e-010 2.42366e-011 2.16268e-013
4
root  12.8909 40.0055 4.68673 -43.4171 -87.7451 41.3547
RightUpLeg  4.1229 -8.10465 -3.52967
RightLeg  4.90506 -0.0194943 0.0403947
RightFoot  -6.12327 -0.0508171 0.126192
RightToes  -1.33073e-015 0 -3.6325e-017
Spine  5.35765 -1.18906 -3.27415
Spine1  0.271442 -1.86248 3.86485
HEad  -2.83644 0.900316 -3.7134
LeftShoulder1  0.276765 1.17919 -3.91437
LeftArm  -23.0455 3.90723 -16.4764
LeftForeArm  0.210891 -0.0798929 3.38634
LeftHand  -0.0389381 4.96552 4.13988
RightShoulder  -0.0458193 -3.94354 2.04442
RightArm  -10.16 4.59498 7.67295
RightForeArm  -1.55869 -0.466203 -2.46027
RightHand  -0.0454917 5.35633 -0.806149
LeftUpLeg  2.85802 5.70641 3.62238
LeftLeg  2.07646 -14.2737 1.45588
LeftFoot  -3.2359 0.130657 -1.59341
LeftToes  -1.93726e-010 2.42366e-011 2.16268e-013
5
root  12.8201 40.0019 4.7082 -47.5183 -87.9309 45.3854
RightUpLeg  4.28593 -8.15913 -3.58737
RightLeg  4.90037 0.235117 0.0786045
RightFoot  -6.15093 -0.047869 0.0804222
RightToes  -1.33073e-015 0 -3.6325e-017
Spine  5.54635 -1.26827 -3.27501
Spine1  0.0543614 -1.96018 3.9811
HEad  -2.61453 1.23253 -3.66741
LeftShoulder1  0.247709 1.44887 -4.0763
LeftArm  -22.8094 3.86698 -16.3864
LeftForeArm  0.357935 -0.082046 3.24491
LeftHand  -0.0426305 4.87571 3.89003
RightShoulder  -0.0379775 -3.86521 2.09895
RightArm  -10.1722 4.76524 7.83621
RightForeArm  -1.40946 -0.144522 -2.39863
RightHand  -0.0618461 4.94376 -0.995119
LeftUpLeg  3.07428 5.78559 3.66908
LeftLeg  2.13388 -14.1118 1.39533
LeftFoot  -3.42686 0.124419 -1.49722
LeftToes  -1.93726e-010 2.42366e-011 2.16268e-013
